<svg width="175" height="86" viewBox="0 0 175 86" fill="none" xmlns="http://www.w3.org/2000/svg">
<g clip-path="url(#clip0)">
<path d="M3.26135 43.6208C3.54047 42.5043 3.92978 41.263 4.42926 39.8967C4.92875 38.5305 5.50169 37.1055 6.14808 35.6217C6.80917 34.1379 7.52901 32.6321 8.30762 31.1043C9.10092 29.5765 9.91626 28.0927 10.7536 26.653C11.6057 25.1986 12.4725 23.8324 13.3539 22.5543C14.25 21.2615 15.1315 20.1083 15.9982 19.0946C16.248 18.8155 16.5565 18.4702 16.9238 18.0589C17.3057 17.6476 17.7244 17.2215 18.1798 16.7808C18.6499 16.3401 19.1347 15.9067 19.6342 15.4807C20.1484 15.04 20.6625 14.6506 21.1767 14.3128C21.6909 13.9602 22.1904 13.6811 22.6752 13.4754C23.16 13.255 23.608 13.1448 24.0194 13.1448C24.5776 13.1448 25.0845 13.2403 25.5399 13.4313C26.01 13.6223 26.4066 13.8941 26.7298 14.2467C27.0677 14.5992 27.3248 15.0253 27.5011 15.5247C27.6921 16.0095 27.7876 16.5458 27.7876 17.1334C27.7876 17.3831 27.7655 17.6329 27.7215 17.8826C27.6921 18.1324 27.648 18.3894 27.5892 18.6539L25.1432 30.95C25.3636 30.6122 25.6721 30.1567 26.0687 29.5838C26.4654 28.9962 26.9135 28.3498 27.4129 27.6446C27.9124 26.9248 28.434 26.1829 28.9775 25.419C29.5211 24.6404 30.0499 23.8911 30.5641 23.1713C31.093 22.4514 31.5778 21.7977 32.0185 21.2101C32.4592 20.6077 32.8191 20.123 33.0983 19.7557L33.4949 19.2489C33.7594 18.911 34.0826 18.5143 34.4645 18.0589C34.8465 17.6035 35.2652 17.126 35.7206 16.6266C36.1907 16.1271 36.6828 15.6349 37.197 15.1501C37.7112 14.6653 38.2327 14.232 38.7616 13.85C39.2904 13.468 39.8119 13.1595 40.3261 12.9245C40.8403 12.6747 41.3324 12.5499 41.8025 12.5499C42.1551 12.5499 42.4489 12.6307 42.684 12.7923C42.919 12.9539 43.11 13.1742 43.2569 13.4534C43.4038 13.7178 43.5067 14.0336 43.5654 14.4009C43.6242 14.7682 43.6536 15.1501 43.6536 15.5468C43.6536 16.1638 43.6022 16.7882 43.4993 17.4199C43.3965 18.0516 43.279 18.6245 43.1467 19.1387C43.0733 19.55 42.9705 20.1376 42.8382 20.9016C42.7207 21.6655 42.5738 22.5469 42.3975 23.5459C42.2359 24.5302 42.0596 25.6026 41.8687 26.7632C41.6777 27.9091 41.4793 29.077 41.2737 30.2669C41.0827 31.4569 40.8844 32.6321 40.6787 33.7927C40.4877 34.9533 40.3041 36.0404 40.1278 37.0541C39.9662 38.053 39.8119 38.9492 39.665 39.7425C39.5328 40.5358 39.4226 41.1528 39.3345 41.5935C39.2904 41.7992 39.217 42.0783 39.1141 42.4309C39.026 42.7834 38.8864 43.1287 38.6955 43.4666C38.5192 43.8045 38.2768 44.0983 37.9683 44.348C37.6744 44.5978 37.3072 44.7226 36.8665 44.7226C36.6314 44.7226 36.4037 44.6492 36.1833 44.5023C35.9777 44.3407 35.7867 44.1423 35.6104 43.9073C35.4488 43.6722 35.3166 43.4225 35.2137 43.1581C35.1256 42.8789 35.0742 42.6292 35.0595 42.4088L39.643 20.6371C39.6871 20.4315 39.7238 20.2478 39.7532 20.0862C39.7826 19.9246 39.7973 19.7704 39.7973 19.6235C39.7973 19.4619 39.7752 19.315 39.7311 19.1827C39.7018 19.0505 39.6724 18.9257 39.643 18.8081C39.5989 18.6759 39.5549 18.5584 39.5108 18.4556C38.8497 18.955 38.1372 19.5941 37.3733 20.3727C36.6241 21.1366 35.8601 21.996 35.0815 22.9509C34.3176 23.8911 33.5463 24.8974 32.7677 25.9699C32.0038 27.0276 31.2766 28.0927 30.5862 29.1651C30.0426 30.0025 29.455 30.8839 28.8233 31.8095C28.2063 32.735 27.5819 33.6678 26.9502 34.608C26.3185 35.5336 25.7015 36.4664 25.0992 37.4066C24.5115 38.3321 23.9753 39.2209 23.4905 40.073C23.2555 40.4843 23.0131 41.0132 22.7633 41.6596C22.5136 42.306 22.2345 42.9377 21.926 43.5547C21.6321 44.1717 21.3089 44.7006 20.9564 45.1413C20.6185 45.582 20.2292 45.8024 19.7884 45.8024C19.4506 45.8024 19.1641 45.751 18.929 45.6481C18.7087 45.5453 18.5324 45.4131 18.4002 45.2515C18.268 45.0752 18.1725 44.8769 18.1137 44.6565C18.0549 44.4215 18.0256 44.1717 18.0256 43.9073C18.0256 43.5694 18.0549 43.2315 18.1137 42.8936C18.1872 42.5557 18.2606 42.2325 18.3341 41.924C18.6426 40.6312 18.9658 39.3458 19.3037 38.0677C19.6415 36.7896 19.9868 35.4821 20.3394 34.1453C20.7066 32.8084 21.0812 31.4275 21.4632 30.0025C21.8452 28.5628 22.2345 27.035 22.6311 25.419C22.7339 24.9636 22.8515 24.4567 22.9837 23.8985C23.1159 23.3255 23.2408 22.7526 23.3583 22.1797C23.4758 21.592 23.5713 21.0264 23.6448 20.4829C23.7182 19.9393 23.755 19.4545 23.755 19.0285C23.755 18.6465 23.7256 18.3454 23.6668 18.125C23.608 17.89 23.4979 17.7724 23.3363 17.7724C22.7927 17.7724 22.2198 17.9781 21.6174 18.3894C21.0151 18.7861 20.4055 19.315 19.7884 19.976C19.1714 20.6371 18.5618 21.3937 17.9594 22.2458C17.3571 23.0978 16.7842 23.9793 16.2406 24.8901C15.6971 25.7862 15.1902 26.675 14.7201 27.5565C14.25 28.4379 13.846 29.2312 13.5081 29.9364C13.4347 30.0833 13.3245 30.289 13.1776 30.5534C13.0454 30.8031 12.8618 31.1631 12.6267 31.6332C12.4063 32.0886 12.1272 32.6762 11.7893 33.3961C11.4661 34.1159 11.0768 35.0267 10.6214 36.1285C10.1807 37.2303 9.66652 38.5452 9.07889 40.073C8.49126 41.6008 7.83017 43.3931 7.09563 45.4498C6.96342 45.8024 6.72837 46.0889 6.39048 46.3092C6.06728 46.5296 5.72939 46.6398 5.37682 46.6398C4.6129 46.6398 4.0473 46.4341 3.68003 46.0228C3.32746 45.6114 3.15117 45.1046 3.15117 44.5023C3.15117 44.2378 3.18789 43.944 3.26135 43.6208ZM45.9674 55.7407C45.747 55.7407 45.5487 55.6819 45.3724 55.5644C45.1961 55.4469 45.0419 55.2926 44.9096 55.1016C44.7921 54.9107 44.6966 54.6976 44.6232 54.4626C44.5497 54.2422 44.513 54.0219 44.513 53.8015C44.513 53.5224 44.5497 53.28 44.6232 53.0743C44.6966 52.8686 44.7848 52.685 44.8876 52.5234C45.0051 52.3765 45.1227 52.259 45.2402 52.1708C45.3724 52.0827 45.4899 52.0166 45.5928 51.9725C45.9453 51.8844 46.3567 51.7889 46.8268 51.686C47.2969 51.5832 47.8037 51.429 48.3473 51.2233C48.9055 51.0323 49.4932 50.7752 50.1102 50.452C50.7419 50.1435 51.3883 49.7322 52.0493 49.218C52.7104 48.7038 53.4009 48.1015 54.1207 47.411C54.8553 46.7353 55.5604 45.942 56.2362 45.0311C56.912 44.1056 57.5437 43.0552 58.1313 41.88C58.719 40.69 59.2037 39.3311 59.5857 37.8033C59.3066 38.1118 58.9834 38.4644 58.6161 38.861C58.2635 39.243 57.8816 39.6396 57.4702 40.051C57.0589 40.4476 56.6329 40.8369 56.1921 41.2189C55.7514 41.5861 55.3107 41.924 54.87 42.2325C54.4293 42.5264 53.9959 42.7614 53.5698 42.9377C53.1585 43.114 52.7692 43.2021 52.4019 43.2021C51.4176 43.2021 50.5803 42.9818 49.8898 42.541C49.1993 42.0856 48.5603 41.3438 47.9727 40.3154C47.8111 40.0216 47.6862 39.6396 47.598 39.1695C47.5099 38.6994 47.4658 38.222 47.4658 37.7372C47.4658 36.9439 47.5026 36.1726 47.576 35.4234C47.6495 34.6741 47.7596 33.8955 47.9066 33.0875C48.0535 32.2796 48.2224 31.4348 48.4134 30.5534C48.6191 29.6573 48.8468 28.673 49.0965 27.6005C49.1112 27.3214 49.1332 27.057 49.1626 26.8072C49.192 26.6016 49.2067 26.4033 49.2067 26.2123C49.2214 26.0213 49.2361 25.9038 49.2508 25.8597C49.2801 25.61 49.3609 25.3749 49.4932 25.1545C49.6401 24.9342 49.809 24.7432 50 24.5816C50.2057 24.42 50.4187 24.2951 50.639 24.207C50.8741 24.1188 51.1018 24.0748 51.3222 24.0748C51.6307 24.0748 51.9392 24.1041 52.2477 24.1629C52.5562 24.207 52.7986 24.3172 52.9749 24.4935C53.2246 24.7579 53.4082 25.1031 53.5258 25.5292C53.658 25.9552 53.7241 26.3371 53.7241 26.675C53.7241 26.8072 53.658 27.0717 53.5258 27.4683C53.4082 27.865 53.232 28.2763 52.9969 28.7024C52.6443 30.0245 52.3579 31.1484 52.1375 32.0739C51.9171 32.9847 51.7408 33.7486 51.6086 34.3656C51.4911 34.968 51.403 35.4528 51.3442 35.82C51.3001 36.1726 51.2781 36.4444 51.2781 36.6354C51.2781 37.4287 51.4103 38.0604 51.6747 38.5305C51.9392 39.0006 52.2624 39.2356 52.6443 39.2356C52.8647 39.2356 53.1144 39.1916 53.3936 39.1034C53.6874 39.0153 53.9959 38.8684 54.3191 38.6627C55.5531 37.8988 56.6108 37.0687 57.4923 36.1726C58.3884 35.2618 59.1523 34.2628 59.784 33.1757C60.4304 32.0739 60.9813 30.8692 61.4367 29.5618C61.9068 28.2543 62.3329 26.8146 62.7148 25.2427C62.7442 25.1398 62.8103 25.037 62.9132 24.9342C63.0307 24.8313 63.1629 24.7432 63.3098 24.6697C63.4714 24.5963 63.6404 24.5375 63.8166 24.4935C63.9929 24.4347 64.1619 24.4053 64.3235 24.4053C65.1021 24.4053 65.6971 24.6183 66.1084 25.0444C66.5344 25.4557 66.7474 26.0139 66.7474 26.7191C66.7474 26.9835 66.6813 27.4096 66.5491 27.9972C66.4169 28.5848 66.2627 29.2092 66.0864 29.8703C65.9101 30.5167 65.7264 31.141 65.5355 31.7433C65.3592 32.331 65.2196 32.7643 65.1168 33.0435L64.059 36.1065C63.5742 37.4874 63.1335 38.7582 62.7369 39.9187C62.3549 41.0793 61.9436 42.1664 61.5028 43.1801C61.0621 44.1791 60.5626 45.1266 60.0044 46.0228C59.4608 46.9189 58.7998 47.793 58.0211 48.6451C57.2425 49.4971 56.317 50.3492 55.2446 51.2012C54.1722 52.068 52.8941 52.9641 51.4103 53.8897C50.4995 54.4332 49.6033 54.8739 48.7219 55.2118C47.8551 55.5644 46.937 55.7407 45.9674 55.7407ZM70.4716 41.6596C70.5891 41.6596 70.6919 41.6743 70.7801 41.7037C70.8829 41.7331 70.9931 41.7698 71.1106 41.8139C71.2281 41.8432 71.3603 41.8726 71.5073 41.902C71.6542 41.9314 71.8451 41.9461 72.0802 41.9461C72.7707 41.9461 73.5346 41.8726 74.3719 41.7257C75.224 41.5788 76.0247 41.3878 76.7739 41.1528C77.5231 40.9177 78.1622 40.6533 78.691 40.3595C79.2346 40.051 79.5431 39.7351 79.6165 39.4119C79.6606 39.2356 79.6827 39.0814 79.6827 38.9492C79.6827 38.6994 79.5578 38.4644 79.308 38.244C79.073 38.0089 78.7718 37.7886 78.4046 37.5829C78.0373 37.3772 77.6406 37.1863 77.2146 37.01C76.7886 36.8337 76.3919 36.6721 76.0247 36.5252L75.2754 36.2167C74.8935 36.0698 74.5189 35.8935 74.1516 35.6878C73.7843 35.4674 73.4391 35.2177 73.1159 34.9386C72.8074 34.6595 72.5283 34.3363 72.2785 33.969C72.0435 33.587 71.8672 33.1537 71.7496 32.6689C71.6909 32.4632 71.6395 32.2575 71.5954 32.0518C71.566 31.8462 71.5513 31.6258 71.5513 31.3908C71.5513 31.0088 71.6762 30.5754 71.9259 30.0906C72.1904 29.5911 72.5356 29.099 72.9616 28.6142C73.4024 28.1294 73.8945 27.6667 74.4381 27.2259C74.9963 26.7852 75.5766 26.4179 76.1789 26.1241C76.6196 25.8156 77.0457 25.5365 77.457 25.2868C77.8683 25.037 78.2797 24.824 78.691 24.6477C79.1171 24.4714 79.5431 24.3319 79.9691 24.229C80.4098 24.1262 80.8726 24.0748 81.3574 24.0748C81.7981 24.0748 82.2756 24.0968 82.7898 24.1409C83.3039 24.1849 83.774 24.2878 84.2001 24.4494C84.6261 24.611 84.9787 24.8534 85.2578 25.1766C85.5516 25.4851 85.6985 25.9038 85.6985 26.4326C85.6985 26.5942 85.6765 26.8072 85.6324 27.0717C85.5883 27.3361 85.5149 27.6005 85.4121 27.865C85.3092 28.1294 85.1843 28.3571 85.0374 28.5481C84.8905 28.7391 84.7142 28.8346 84.5086 28.8346C84.1707 28.8346 83.8916 28.7685 83.6712 28.6362C83.4508 28.504 83.2525 28.3645 83.0762 28.2176C82.8999 28.056 82.7163 27.9091 82.5253 27.7768C82.3343 27.6446 82.0993 27.5785 81.8202 27.5785C81.4823 27.5785 81.0856 27.6446 80.6302 27.7768C80.1895 27.8944 79.7341 28.0633 79.264 28.2837C78.7939 28.4893 78.3311 28.7317 77.8757 29.0109C77.435 29.29 77.031 29.5765 76.6637 29.8703C76.3111 30.1641 76.0247 30.4579 75.8043 30.7517C75.5839 31.0308 75.4738 31.2879 75.4738 31.523C75.4738 31.7727 75.5546 31.9784 75.7162 32.14C75.8778 32.3016 76.0834 32.4412 76.3332 32.5587C76.6564 32.735 77.0236 32.9113 77.435 33.0875C77.861 33.2638 78.287 33.4401 78.7131 33.6164C79.1391 33.7927 79.5504 33.969 79.9471 34.1453C80.3584 34.3216 80.711 34.4832 81.0048 34.6301C81.4015 34.8357 81.7541 35.0414 82.0626 35.2471C82.3858 35.4381 82.6575 35.6511 82.8779 35.8861C83.0983 36.1212 83.2672 36.3856 83.3847 36.6794C83.5023 36.9733 83.561 37.3185 83.561 37.7151C83.561 37.9061 83.5463 38.0971 83.5169 38.2881C83.4876 38.4791 83.4435 38.6994 83.3847 38.9492C83.3407 39.1695 83.2599 39.4266 83.1423 39.7204C83.0395 40.0142 82.922 40.3081 82.7898 40.6019C82.6722 40.881 82.5474 41.1381 82.4151 41.3731C82.2829 41.5935 82.1727 41.7404 82.0846 41.8139C81.5117 42.3427 80.8359 42.8422 80.0573 43.3123C79.2787 43.7677 78.4633 44.1717 77.6113 44.5243C76.7739 44.8622 75.9292 45.134 75.0771 45.3396C74.2397 45.5453 73.4685 45.6481 72.7633 45.6481C72.4107 45.6481 72.0214 45.582 71.5954 45.4498C71.1694 45.3029 70.7727 45.1193 70.4054 44.8989C70.0529 44.6639 69.7517 44.3994 69.502 44.1056C69.2669 43.8118 69.1494 43.518 69.1494 43.2242C69.1494 43.0773 69.1935 42.9157 69.2816 42.7394C69.3697 42.5484 69.4799 42.3794 69.6121 42.2325C69.7444 42.0709 69.8839 41.9387 70.0308 41.8359C70.1924 41.7184 70.3393 41.6596 70.4716 41.6596ZM91.7805 38.7068C91.7805 37.4727 91.9201 36.1946 92.1992 34.8725C92.4783 33.5356 92.7721 32.2575 93.0806 31.0382C92.6987 31.0235 92.3094 30.9647 91.9127 30.8619C91.5161 30.7591 91.1561 30.6195 90.8329 30.4432C90.5097 30.2669 90.2453 30.0539 90.0396 29.8042C89.834 29.5397 89.7311 29.2386 89.7311 28.9007C89.7311 28.7685 89.7605 28.5995 89.8193 28.3938C89.878 28.1882 89.9588 27.9899 90.0617 27.7989C90.1792 27.5932 90.3261 27.4243 90.5024 27.292C90.6787 27.1451 90.877 27.0717 91.0974 27.0717H94.0502C94.3293 27.0717 94.5203 26.9542 94.6232 26.7191C94.726 26.4694 94.8068 26.227 94.8656 25.9919C95.0565 25.1398 95.2328 24.4053 95.3944 23.7883C95.5707 23.1566 95.7176 22.6277 95.8351 22.2017C95.9527 21.761 96.0408 21.4084 96.0996 21.144C96.173 20.8648 96.2098 20.6445 96.2098 20.4829C96.2098 20.2919 96.2024 20.1083 96.1877 19.932C96.173 19.7557 96.1657 19.5133 96.1657 19.2048V18.9844C96.1657 18.8669 96.173 18.7126 96.1877 18.5217C96.2171 18.3307 96.2906 18.0589 96.4081 17.7063C96.4962 17.4272 96.6578 17.1628 96.8929 16.913C97.1279 16.6633 97.4732 16.5384 97.9286 16.5384C98.3252 16.5384 98.6631 16.6192 98.9422 16.7808C99.2214 16.9424 99.4491 17.1554 99.6254 17.4199C99.8017 17.6843 99.9339 17.9854 100.022 18.3233C100.11 18.6612 100.154 18.9991 100.154 19.337C100.154 19.7043 100.118 20.0348 100.044 20.3286L98.4354 26.4987C99.2287 26.3665 99.9339 26.2417 100.551 26.1241C101.168 26.0066 101.785 25.8891 102.402 25.7715C103.078 25.6393 103.658 25.5145 104.143 25.3969C104.642 25.2794 105.068 25.1839 105.421 25.1105C105.773 25.0223 106.067 24.9562 106.302 24.9121C106.552 24.8534 106.758 24.824 106.919 24.824C107.154 24.824 107.389 24.846 107.624 24.8901C107.874 24.9195 108.087 24.9782 108.264 25.0664C108.455 25.1545 108.609 25.2794 108.726 25.441C108.844 25.6026 108.903 25.8156 108.903 26.0801C108.903 26.4326 108.829 26.7485 108.682 27.0276C108.55 27.292 108.374 27.5271 108.153 27.7328C107.933 27.9237 107.683 28.0853 107.404 28.2176C107.125 28.3351 106.846 28.4232 106.567 28.482C106.332 28.5261 106.023 28.5922 105.641 28.6803C105.274 28.7685 104.863 28.864 104.407 28.9668C103.966 29.0696 103.504 29.1798 103.019 29.2973C102.534 29.4149 102.064 29.5324 101.609 29.6499C100.933 29.8262 100.353 29.9731 99.8678 30.0906C99.3977 30.2082 98.9937 30.2963 98.6558 30.3551C98.3179 30.4138 98.0388 30.4579 97.8184 30.4873C97.6127 30.5167 97.4438 30.5314 97.3116 30.5314C97.0324 31.3687 96.79 32.1914 96.5844 32.9994C96.3787 33.8074 96.2024 34.564 96.0555 35.2691C95.9233 35.9596 95.8205 36.5839 95.747 37.1422C95.6882 37.6858 95.6589 38.1118 95.6589 38.4203C95.6589 38.8169 95.6956 39.1989 95.769 39.5662C95.8425 39.9187 95.9674 40.2273 96.1437 40.4917C96.3199 40.7561 96.555 40.9691 96.8488 41.1307C97.1573 41.2776 97.5393 41.3511 97.9947 41.3511C98.7733 41.3511 99.5372 41.1381 100.286 40.712C101.036 40.286 101.748 39.7498 102.424 39.1034C103.114 38.4423 103.761 37.7225 104.363 36.9439C104.98 36.1653 105.546 35.4234 106.06 34.7182C106.236 34.4538 106.464 34.3216 106.743 34.3216C106.831 34.3216 106.934 34.3363 107.052 34.3656C107.184 34.395 107.309 34.4464 107.426 34.5199C107.544 34.5933 107.639 34.6888 107.713 34.8064C107.801 34.9239 107.845 35.0635 107.845 35.2251C107.845 35.3426 107.837 35.4307 107.823 35.4895C107.588 36.4003 107.22 37.3185 106.721 38.244C106.236 39.1548 105.737 40.073 105.223 40.9985C105.046 41.3217 104.811 41.6376 104.517 41.9461C104.238 42.2546 103.93 42.5557 103.592 42.8496C103.254 43.1287 102.901 43.4005 102.534 43.6649C102.167 43.9146 101.822 44.1423 101.498 44.348C100.94 44.7006 100.331 44.943 99.6694 45.0752C99.0084 45.2074 98.3693 45.2735 97.7523 45.2735C96.7974 45.2735 95.9453 45.1046 95.1961 44.7667C94.4616 44.4141 93.8372 43.944 93.323 43.3564C92.8235 42.7541 92.4416 42.0563 92.1771 41.263C91.9127 40.4697 91.7805 39.6176 91.7805 38.7068ZM112.164 37.0541C112.164 36.4223 112.333 35.8861 112.671 35.4454C113.009 35.0047 113.457 34.7109 114.015 34.564C114.177 34.2408 114.426 33.8074 114.764 33.2638C115.102 32.7056 115.521 32.1033 116.02 31.4569C116.52 30.8105 117.085 30.1641 117.717 29.5177C118.363 28.8566 119.069 28.2616 119.832 27.7328C120.611 27.1892 121.441 26.7485 122.323 26.4106C123.219 26.0727 124.166 25.9038 125.165 25.9038C126.017 25.9038 126.759 26.0066 127.391 26.2123C128.023 26.4179 128.544 26.7044 128.955 27.0717C129.367 27.439 129.675 27.8797 129.881 28.3938C130.087 28.8933 130.189 29.4369 130.189 30.0245C130.189 30.524 130.123 31.0015 129.991 31.4569C129.785 32.2796 129.404 32.9994 128.845 33.6164C128.287 34.2334 127.626 34.777 126.862 35.2471C126.113 35.7025 125.29 36.0845 124.394 36.393C123.513 36.7015 122.624 36.9586 121.728 37.1642C120.846 37.3699 119.994 37.5315 119.171 37.649C118.349 37.7519 117.636 37.8327 117.034 37.8914C116.902 38.1559 116.784 38.4937 116.681 38.9051C116.593 39.3017 116.549 39.691 116.549 40.073C116.549 40.9251 116.887 41.5861 117.563 42.0563C118.239 42.5264 119.171 42.7614 120.361 42.7614C121.052 42.7614 121.713 42.688 122.345 42.541C122.976 42.3794 123.571 42.1811 124.13 41.9461C124.702 41.6963 125.239 41.4319 125.738 41.1528C126.238 40.859 126.693 40.5725 127.104 40.2934C127.633 39.9408 128.133 39.647 128.603 39.4119C129.088 39.1622 129.514 39.0373 129.881 39.0373C130.248 39.0373 130.483 39.1328 130.586 39.3238C130.689 39.5001 130.74 39.691 130.74 39.8967C130.74 40.0142 130.733 40.1318 130.718 40.2493C130.718 40.3521 130.711 40.4403 130.696 40.5137C130.623 40.8957 130.476 41.2776 130.256 41.6596C130.035 42.0416 129.756 42.3721 129.418 42.6512C127.89 43.8559 126.318 44.7153 124.702 45.2295C123.101 45.7436 121.39 46.0007 119.568 46.0007C119.215 46.0007 118.797 45.9787 118.312 45.9346C117.842 45.8905 117.35 45.8024 116.836 45.6702C116.321 45.538 115.815 45.347 115.315 45.0972C114.816 44.8475 114.368 44.517 113.971 44.1056C113.589 43.6943 113.273 43.1874 113.023 42.5851C112.788 41.9828 112.671 41.2556 112.671 40.4035C112.671 39.7131 112.766 38.9418 112.957 38.0897C112.766 38.0604 112.583 37.9649 112.406 37.8033C112.245 37.627 112.164 37.3772 112.164 37.0541ZM125.959 30.95C125.988 30.8766 126.003 30.8105 126.003 30.7517C126.003 30.693 126.003 30.6268 126.003 30.5534C126.003 30.1567 125.856 29.8629 125.562 29.6719C125.268 29.4663 124.915 29.3634 124.504 29.3634C123.858 29.3634 123.219 29.5324 122.587 29.8703C121.97 30.2082 121.382 30.6342 120.824 31.1484C120.281 31.6479 119.796 32.1914 119.37 32.779C118.944 33.352 118.613 33.8735 118.378 34.3436C119.436 34.2555 120.405 34.1159 121.287 33.9249C122.168 33.7192 122.932 33.4695 123.579 33.1757C124.24 32.8672 124.769 32.5293 125.165 32.162C125.577 31.7801 125.841 31.3761 125.959 30.95ZM135.214 43.2903C135.405 42.2619 135.625 41.1307 135.875 39.8967C136.125 38.6627 136.382 37.414 136.646 36.1506C136.911 34.8872 137.168 33.6458 137.417 32.4265C137.667 31.2071 137.88 30.0906 138.056 29.077C138.042 28.9301 138.034 28.8052 138.034 28.7024C138.034 28.5848 138.034 28.46 138.034 28.3277C138.034 27.8723 138.064 27.4169 138.122 26.9615C138.181 26.5061 138.262 26.0874 138.365 25.7054C138.526 25.1472 138.703 24.7726 138.894 24.5816C139.099 24.3759 139.423 24.2731 139.863 24.2731C140.289 24.2731 140.627 24.3612 140.877 24.5375C141.141 24.6991 141.347 24.9195 141.494 25.1986C141.641 25.4777 141.736 25.8009 141.78 26.1682C141.825 26.5208 141.847 26.888 141.847 27.27C141.847 27.4757 141.839 27.7034 141.825 27.9531C141.81 28.2029 141.803 28.4012 141.803 28.5481C142.214 28.1221 142.647 27.6887 143.103 27.248C143.573 26.7926 144.065 26.3886 144.579 26.036C145.108 25.6687 145.659 25.3676 146.232 25.1325C146.819 24.8974 147.429 24.7799 148.061 24.7799C148.311 24.7799 148.553 24.802 148.788 24.846C149.038 24.8901 149.287 24.9489 149.537 25.0223C149.831 25.0958 150.132 25.1986 150.441 25.3308C150.764 25.4484 151.072 25.6173 151.366 25.8377C151.851 26.2049 152.255 26.6677 152.578 27.2259C152.916 27.7695 153.085 28.3277 153.085 28.9007C153.085 29.121 153.041 29.3634 152.953 29.6279C152.865 29.8776 152.74 30.1127 152.578 30.333C152.431 30.5387 152.255 30.715 152.049 30.8619C151.844 30.9941 151.616 31.0602 151.366 31.0602C151.116 31.0602 150.808 31.0015 150.441 30.8839C150.088 30.7517 149.794 30.5828 149.559 30.3771C149.456 30.289 149.346 30.1641 149.229 30.0025C149.126 29.8409 149.023 29.6793 148.92 29.5177C148.832 29.3561 148.744 29.2092 148.656 29.077C148.582 28.9301 148.524 28.8346 148.479 28.7905C148.406 28.7758 148.325 28.7685 148.237 28.7685C148.149 28.7538 148.068 28.7464 147.995 28.7464C147.245 28.7464 146.533 28.9374 145.857 29.3194C145.181 29.7013 144.55 30.1714 143.962 30.7297C143.374 31.2732 142.831 31.8609 142.331 32.4926C141.847 33.1096 141.421 33.6678 141.053 34.1673C140.759 35.3573 140.429 36.628 140.062 37.9796C139.709 39.3164 139.357 40.7194 139.004 42.1885V42.7394C139.004 43.1801 138.989 43.6282 138.96 44.0836C138.93 44.539 138.842 44.943 138.695 45.2956C138.534 45.5159 138.299 45.6996 137.99 45.8465C137.696 46.0081 137.351 46.0889 136.955 46.0889C136.338 46.0889 135.875 45.8905 135.566 45.4939C135.258 45.0825 135.104 44.6051 135.104 44.0615C135.104 43.8118 135.14 43.5547 135.214 43.2903ZM153.856 55.7407C153.636 55.7407 153.438 55.6819 153.261 55.5644C153.085 55.4469 152.931 55.2926 152.799 55.1016C152.681 54.9107 152.586 54.6976 152.512 54.4626C152.439 54.2422 152.402 54.0219 152.402 53.8015C152.402 53.5224 152.439 53.28 152.512 53.0743C152.586 52.8686 152.674 52.685 152.777 52.5234C152.894 52.3765 153.012 52.259 153.129 52.1708C153.261 52.0827 153.379 52.0166 153.482 51.9725C153.834 51.8844 154.246 51.7889 154.716 51.686C155.186 51.5832 155.693 51.429 156.236 51.2233C156.794 51.0323 157.382 50.7752 157.999 50.452C158.631 50.1435 159.277 49.7322 159.938 49.218C160.599 48.7038 161.29 48.1015 162.01 47.411C162.744 46.7353 163.449 45.942 164.125 45.0311C164.801 44.1056 165.433 43.0552 166.02 41.88C166.608 40.69 167.093 39.3311 167.475 37.8033C167.195 38.1118 166.872 38.4644 166.505 38.861C166.152 39.243 165.77 39.6396 165.359 40.051C164.948 40.4476 164.522 40.8369 164.081 41.2189C163.64 41.5861 163.2 41.924 162.759 42.2325C162.318 42.5264 161.885 42.7614 161.459 42.9377C161.047 43.114 160.658 43.2021 160.291 43.2021C159.307 43.2021 158.469 42.9818 157.779 42.541C157.088 42.0856 156.449 41.3438 155.862 40.3154C155.7 40.0216 155.575 39.6396 155.487 39.1695C155.399 38.6994 155.355 38.222 155.355 37.7372C155.355 36.9439 155.391 36.1726 155.465 35.4234C155.538 34.6741 155.649 33.8955 155.795 33.0875C155.942 32.2796 156.111 31.4348 156.302 30.5534C156.508 29.6573 156.736 28.673 156.985 27.6005C157 27.3214 157.022 27.057 157.052 26.8072C157.081 26.6016 157.096 26.4033 157.096 26.2123C157.11 26.0213 157.125 25.9038 157.14 25.8597C157.169 25.61 157.25 25.3749 157.382 25.1545C157.529 24.9342 157.698 24.7432 157.889 24.5816C158.095 24.42 158.308 24.2951 158.528 24.207C158.763 24.1188 158.991 24.0748 159.211 24.0748C159.52 24.0748 159.828 24.1041 160.137 24.1629C160.445 24.207 160.687 24.3172 160.864 24.4935C161.114 24.7579 161.297 25.1031 161.415 25.5292C161.547 25.9552 161.613 26.3371 161.613 26.675C161.613 26.8072 161.547 27.0717 161.415 27.4683C161.297 27.865 161.121 28.2763 160.886 28.7024C160.533 30.0245 160.247 31.1484 160.026 32.0739C159.806 32.9847 159.63 33.7486 159.498 34.3656C159.38 34.968 159.292 35.4528 159.233 35.82C159.189 36.1726 159.167 36.4444 159.167 36.6354C159.167 37.4287 159.299 38.0604 159.564 38.5305C159.828 39.0006 160.151 39.2356 160.533 39.2356C160.754 39.2356 161.003 39.1916 161.282 39.1034C161.576 39.0153 161.885 38.8684 162.208 38.6627C163.442 37.8988 164.5 37.0687 165.381 36.1726C166.277 35.2618 167.041 34.2628 167.673 33.1757C168.319 32.0739 168.87 30.8692 169.326 29.5618C169.796 28.2543 170.222 26.8146 170.604 25.2427C170.633 25.1398 170.699 25.037 170.802 24.9342C170.92 24.8313 171.052 24.7432 171.199 24.6697C171.36 24.5963 171.529 24.5375 171.706 24.4935C171.882 24.4347 172.051 24.4053 172.212 24.4053C172.991 24.4053 173.586 24.6183 173.997 25.0444C174.423 25.4557 174.636 26.0139 174.636 26.7191C174.636 26.9835 174.57 27.4096 174.438 27.9972C174.306 28.5848 174.152 29.2092 173.975 29.8703C173.799 30.5167 173.615 31.141 173.424 31.7433C173.248 32.331 173.109 32.7643 173.006 33.0435L171.948 36.1065C171.463 37.4874 171.022 38.7582 170.626 39.9187C170.244 41.0793 169.832 42.1664 169.392 43.1801C168.951 44.1791 168.452 45.1266 167.893 46.0228C167.35 46.9189 166.689 47.793 165.91 48.6451C165.131 49.4971 164.206 50.3492 163.133 51.2012C162.061 52.068 160.783 52.9641 159.299 53.8897C158.388 54.4332 157.492 54.8739 156.611 55.2118C155.744 55.5644 154.826 55.7407 153.856 55.7407Z" fill="white"/>
<path d="M48.6972 69.8047C48.6972 69.0236 48.7915 68.1415 48.98 67.1585C49.1686 66.1619 49.4985 65.199 49.9699 64.2698C50.6163 62.977 51.3367 61.7313 52.1313 60.5328C52.9258 59.3208 53.7406 58.2098 54.5755 57.1998C55.4104 56.1763 56.2454 55.274 57.0803 54.4929C57.9153 53.6984 58.7098 53.0789 59.464 52.6345L59.4437 52.6547C59.9151 52.3585 60.4134 52.0487 60.9386 51.7255C61.4638 51.4023 62.0024 51.106 62.5546 50.8367C63.1067 50.5674 63.6656 50.3452 64.2312 50.1701C64.7968 49.995 65.3557 49.9075 65.9078 49.9075C66.4734 49.9075 67.0121 50.022 67.5238 50.2509C68.0356 50.4798 68.48 50.7963 68.857 51.2003C69.2476 51.5908 69.5506 52.0487 69.766 52.5739C69.995 53.0991 70.1095 53.658 70.1095 54.2505C70.1095 54.668 70.0825 54.9979 70.0287 55.2403C69.9883 55.4693 69.9142 55.6444 69.8064 55.7656C69.7122 55.8868 69.5842 55.9608 69.4226 55.9878C69.2745 56.0147 69.0994 56.0282 68.8974 56.0282C68.6012 56.0282 68.3655 55.9676 68.1904 55.8464C68.0288 55.7117 67.8942 55.5568 67.7864 55.3818C67.6922 55.1932 67.6181 54.9912 67.5642 54.7757C67.5104 54.5468 67.443 54.3448 67.3622 54.1697C67.2949 53.9812 67.2006 53.8263 67.0794 53.7051C66.9717 53.5705 66.8168 53.5031 66.6148 53.5031C66.0761 53.5031 65.4903 53.6243 64.8574 53.8667C64.2379 54.1091 63.5983 54.4323 62.9384 54.8363C62.292 55.2403 61.6388 55.705 60.979 56.2302C60.3326 56.7419 59.7131 57.2671 59.1205 57.8058C58.528 58.3444 57.9759 58.8764 57.4641 59.4016C56.9659 59.9268 56.5349 60.3981 56.1713 60.8156C55.6326 61.5024 55.1411 62.2027 54.6967 62.9164C54.2523 63.6167 53.8685 64.3372 53.5453 65.0778C53.2221 65.8051 52.973 66.5592 52.7979 67.3403C52.6228 68.1079 52.5353 68.9091 52.5353 69.7441C52.5353 70.3905 52.6228 70.9561 52.7979 71.4409C52.9864 71.9257 53.1884 72.3432 53.4039 72.6933C53.6598 73.0973 53.9762 73.3801 54.3533 73.5417C54.7304 73.6899 55.1815 73.7639 55.7067 73.7639C56.8514 73.7639 57.9085 73.6562 58.8781 73.4407C59.8478 73.2253 60.777 72.9357 61.6658 72.5721C62.5546 72.2085 63.4232 71.7776 64.2716 71.2793C65.12 70.781 65.9953 70.2491 66.8976 69.6835H67.4228C67.5979 69.6835 67.773 69.7306 67.948 69.8249C68.1366 69.9192 68.2982 70.0404 68.4328 70.1885C68.581 70.3366 68.6954 70.505 68.7762 70.6935C68.8705 70.882 68.9176 71.0773 68.9176 71.2793C68.9176 71.7237 68.7426 72.1681 68.3924 72.6125C68.0423 73.0435 67.5912 73.4609 67.039 73.8649C66.5004 74.2555 65.8876 74.6258 65.2008 74.9759C64.514 75.3261 63.8339 75.6358 63.1606 75.9051C62.5007 76.1745 61.8812 76.4034 61.3022 76.592C60.7231 76.7805 60.2585 76.9084 59.9084 76.9758C59.6121 77.0431 59.3225 77.1104 59.0397 77.1778C58.7704 77.2316 58.4472 77.2922 58.0701 77.3596C57.6931 77.4134 57.2419 77.4606 56.7167 77.501C56.1915 77.5279 55.5316 77.5414 54.7371 77.5414C54.2523 77.5414 53.8079 77.4673 53.4039 77.3192C52.9999 77.1576 52.6363 76.9758 52.3131 76.7738C52.0033 76.5583 51.734 76.3361 51.5051 76.1072C51.2896 75.8782 51.1145 75.6829 50.9799 75.5213C50.1853 74.5921 49.6063 73.6764 49.2427 72.7741C48.879 71.8718 48.6972 70.882 48.6972 69.8047ZM72.9375 76.3294C73.1125 75.3867 73.3146 74.3497 73.5435 73.2185C73.7724 72.0873 74.0081 70.9426 74.2505 69.7845C74.4929 68.6263 74.7286 67.4884 74.9575 66.3707C75.1864 65.2529 75.3817 64.2294 75.5433 63.3002C75.5298 63.1656 75.5231 63.0511 75.5231 62.9568C75.5231 62.8491 75.5231 62.7346 75.5231 62.6134C75.5231 62.196 75.55 61.7785 75.6039 61.361C75.6578 60.9435 75.7318 60.5597 75.8261 60.2096C75.9742 59.6979 76.1358 59.3545 76.3109 59.1794C76.4994 58.9909 76.7957 58.8966 77.1997 58.8966C77.5903 58.8966 77.9 58.9774 78.1289 59.139C78.3713 59.2871 78.5599 59.4891 78.6945 59.745C78.8292 60.0009 78.9167 60.2971 78.9571 60.6338C78.9975 60.957 79.0177 61.2937 79.0177 61.6438C79.0177 61.8323 79.011 62.0411 78.9975 62.27C78.9841 62.499 78.9773 62.6808 78.9773 62.8154C79.3544 62.4249 79.7517 62.0276 80.1691 61.6236C80.6001 61.2061 81.0512 60.8358 81.5226 60.5126C82.0074 60.1759 82.5124 59.8999 83.0376 59.6844C83.5762 59.4689 84.1351 59.3612 84.7142 59.3612C84.9431 59.3612 85.1653 59.3814 85.3808 59.4218C85.6097 59.4622 85.8387 59.5161 86.0676 59.5834C86.3369 59.6507 86.613 59.745 86.8958 59.8662C87.1921 59.9739 87.4749 60.1288 87.7442 60.3308C88.1886 60.6675 88.559 61.0917 88.8552 61.6034C89.165 62.1017 89.3198 62.6134 89.3198 63.1386C89.3198 63.3406 89.2794 63.5628 89.1986 63.8052C89.1178 64.0342 89.0034 64.2496 88.8552 64.4516C88.7206 64.6402 88.559 64.8018 88.3704 64.9364C88.1819 65.0576 87.9732 65.1182 87.7442 65.1182C87.5153 65.1182 87.2325 65.0644 86.8958 64.9566C86.5726 64.8354 86.3033 64.6806 86.0878 64.492C85.9935 64.4112 85.8925 64.2968 85.7848 64.1486C85.6905 64.0005 85.5963 63.8524 85.502 63.7042C85.4212 63.5561 85.3404 63.4214 85.2596 63.3002C85.1923 63.1656 85.1384 63.078 85.098 63.0376C85.0307 63.0242 84.9566 63.0174 84.8758 63.0174C84.795 63.004 84.7209 62.9972 84.6536 62.9972C83.9668 62.9972 83.3136 63.1723 82.6942 63.5224C82.0747 63.8726 81.4956 64.3035 80.957 64.8152C80.4183 65.3135 79.92 65.8522 79.4621 66.4313C79.0177 66.9969 78.6272 67.5086 78.2905 67.9665C78.0212 69.0573 77.7182 70.2222 77.3815 71.4611C77.0583 72.6866 76.7351 73.9727 76.4119 75.3193V75.8243C76.4119 76.2284 76.3984 76.6391 76.3715 77.0566C76.3446 77.474 76.2638 77.8444 76.1291 78.1676C75.981 78.3696 75.7655 78.5379 75.4827 78.6726C75.2134 78.8207 74.8969 78.8948 74.5333 78.8948C73.9677 78.8948 73.5435 78.713 73.2607 78.3494C72.9779 77.9723 72.8365 77.5346 72.8365 77.0364C72.8365 76.8074 72.8701 76.5718 72.9375 76.3294ZM99.9653 77.5414C99.9653 77.1508 100.012 76.6862 100.107 76.1476C100.201 75.5954 100.248 74.9153 100.248 74.1073C99.8037 74.4305 99.3122 74.8143 98.7735 75.2587C98.2349 75.7031 97.676 76.1274 97.0969 76.5314C96.5178 76.9354 95.9388 77.2788 95.3597 77.5616C94.7941 77.8309 94.2622 77.9656 93.7639 77.9656C93.3599 77.9656 92.9761 77.905 92.6125 77.7838C92.2489 77.6626 91.9391 77.501 91.6833 77.299C90.9695 76.7334 90.451 76.1678 90.1278 75.6021C89.8181 75.0365 89.6632 74.3767 89.6632 73.6225C89.6632 73.2859 89.6902 72.9357 89.744 72.5721C89.8114 72.2085 89.9056 71.791 90.0268 71.3197C90.5386 69.192 91.4139 67.2258 92.6529 65.4212C93.9053 63.6032 95.454 62.0545 97.2989 60.7752C98.0127 60.2769 98.7264 59.9605 99.4401 59.8258C100.154 59.6777 100.861 59.6036 101.561 59.6036C101.871 59.6036 102.214 59.6238 102.591 59.6642C102.982 59.7046 103.332 59.745 103.642 59.7854C103.952 59.7181 104.201 59.6709 104.389 59.644C104.591 59.6171 104.8 59.6036 105.015 59.6036C105.419 59.6036 105.756 59.6575 106.025 59.7652C106.295 59.8729 106.51 60.0211 106.672 60.2096C106.833 60.3847 106.948 60.5934 107.015 60.8358C107.096 61.0647 107.136 61.3071 107.136 61.563C107.136 61.9131 107.083 62.2498 106.975 62.573C106.867 62.8828 106.759 63.1992 106.652 63.5224L103.985 74.1679C103.931 74.747 103.884 75.2789 103.844 75.7637C103.803 76.2486 103.723 76.6997 103.601 77.1172C103.561 77.2384 103.507 77.3932 103.44 77.5818C103.386 77.7568 103.292 77.9319 103.157 78.107C103.022 78.2686 102.854 78.41 102.652 78.5312C102.45 78.6524 102.187 78.713 101.864 78.713C101.447 78.713 101.11 78.686 100.854 78.6322C100.612 78.5783 100.423 78.5042 100.289 78.41C100.154 78.3022 100.066 78.181 100.026 78.0464C99.9855 77.8982 99.9653 77.7299 99.9653 77.5414ZM93.2589 71.4409C93.205 71.6294 93.1444 71.8988 93.0771 72.2489C93.0232 72.5991 92.9963 72.9492 92.9963 73.2993C92.9963 73.6629 93.0501 73.9929 93.1579 74.2891C93.2656 74.5719 93.5013 74.7133 93.8649 74.7133C94.4305 74.7133 94.9557 74.5921 95.4405 74.3497C95.9388 74.0939 96.4034 73.7909 96.8343 73.4407C97.4134 72.9694 97.9992 72.4442 98.5917 71.8651C99.1977 71.2726 99.7633 70.6531 100.289 70.0067C100.827 69.3603 101.299 68.7004 101.703 68.0271C102.12 67.3403 102.423 66.6602 102.612 65.9869C102.719 65.5963 102.807 65.1452 102.874 64.6334C102.955 64.1217 102.995 63.6638 102.995 63.2598C102.995 63.0848 102.955 62.9164 102.874 62.7548C102.793 62.5798 102.639 62.4922 102.41 62.4922C101.75 62.4922 101.083 62.6202 100.41 62.876C99.7499 63.1319 99.1102 63.4753 98.4907 63.9062C97.8713 64.3372 97.2787 64.8489 96.7131 65.4414C96.161 66.0205 95.656 66.6467 95.1981 67.3201C94.7402 67.9799 94.343 68.6667 94.0063 69.3805C93.6831 70.0808 93.4339 70.7676 93.2589 71.4409ZM108.47 85.884C108.739 84.7932 108.975 83.79 109.177 82.8742C109.392 81.9719 109.587 81.1168 109.762 80.3088C109.938 79.5143 110.099 78.7466 110.247 78.006C110.409 77.2518 110.564 76.4977 110.712 75.7435C110.873 74.9759 111.035 74.1814 111.197 73.3599C111.372 72.5384 111.56 71.6429 111.762 70.6733L112.732 65.9869C112.893 65.1923 113.001 64.5122 113.055 63.9466C113.122 63.3676 113.156 62.8356 113.156 62.3508C113.156 61.8391 113.17 61.3879 113.196 60.9974C113.223 60.5934 113.297 60.2567 113.419 59.9874C113.54 59.7046 113.715 59.4959 113.944 59.3612C114.186 59.2131 114.516 59.139 114.934 59.139C115.54 59.139 116.011 59.2265 116.348 59.4016C116.684 59.5632 116.934 59.7787 117.095 60.048C117.257 60.3173 117.351 60.6271 117.378 60.9772C117.418 61.3273 117.439 61.6909 117.439 62.068C117.896 61.7448 118.428 61.4553 119.034 61.1994C119.654 60.9435 120.293 60.7348 120.953 60.5732C121.613 60.3981 122.28 60.2635 122.953 60.1692C123.627 60.0749 124.259 60.0278 124.852 60.0278C125.822 60.0278 126.67 60.2029 127.397 60.553C128.124 60.8897 128.73 61.3475 129.215 61.9266C129.7 62.4922 130.064 63.1521 130.306 63.9062C130.548 64.6469 130.67 65.4145 130.67 66.2091C130.67 67.1383 130.521 68.0136 130.225 68.8351C129.929 69.6566 129.525 70.4242 129.013 71.1379C128.501 71.8516 127.902 72.5182 127.215 73.1377C126.542 73.7437 125.808 74.3026 125.014 74.8143C124.233 75.3261 123.418 75.7974 122.569 76.2284C121.734 76.6458 120.906 77.0229 120.085 77.3596C119.533 77.5885 119.007 77.7636 118.509 77.8848C118.024 77.9925 117.587 78.0464 117.196 78.0464C116.644 78.0464 116.105 77.9858 115.58 77.8646C115.068 77.7434 114.57 77.5414 114.085 77.2586C113.816 78.1743 113.587 79.0496 113.398 79.8846C113.223 80.7195 113.082 81.4602 112.974 82.1066C112.907 82.5106 112.826 82.9348 112.732 83.3792C112.638 83.8236 112.543 84.2546 112.449 84.672C112.355 85.103 112.261 85.507 112.166 85.884C112.085 86.2611 112.018 86.5843 111.964 86.8537C111.924 87.0153 111.823 87.1499 111.661 87.2577C111.513 87.3654 111.331 87.4529 111.116 87.5203C110.9 87.6011 110.678 87.6549 110.449 87.6819C110.234 87.7223 110.039 87.7425 109.863 87.7425C108.867 87.7425 108.369 87.3519 108.369 86.5709C108.369 86.3554 108.402 86.1264 108.47 85.884ZM114.732 74.1679C114.934 74.1949 115.149 74.2285 115.378 74.2689C115.607 74.3093 115.829 74.3497 116.045 74.3901C116.26 74.4305 116.442 74.4709 116.59 74.5113C116.752 74.5383 116.859 74.5517 116.913 74.5517C117.169 74.5517 117.452 74.5181 117.762 74.4507C118.085 74.3834 118.401 74.2959 118.711 74.1881C119.034 74.0804 119.344 73.9659 119.64 73.8447C119.937 73.7101 120.199 73.5821 120.428 73.4609C121.088 73.1243 121.788 72.7203 122.529 72.2489C123.283 71.7641 123.977 71.212 124.61 70.5925C125.256 69.973 125.788 69.2795 126.205 68.5119C126.623 67.7443 126.832 66.8959 126.832 65.9667C126.832 65.5896 126.784 65.2394 126.69 64.9162C126.596 64.593 126.455 64.3102 126.266 64.0678C126.077 63.8254 125.828 63.6369 125.519 63.5022C125.222 63.3541 124.865 63.28 124.448 63.28C123.99 63.28 123.559 63.3137 123.155 63.381C122.751 63.4349 122.354 63.5292 121.963 63.6638C121.573 63.7985 121.182 63.9736 120.792 64.189C120.401 64.391 119.997 64.6402 119.58 64.9364C119.203 65.2462 118.778 65.5222 118.307 65.7647C117.836 65.9936 117.324 66.1417 116.772 66.2091L114.732 74.1679Z" fill="#FF0000"/>
</g>
<defs>
<clipPath id="clip0">
<rect width="174.56" height="85.1" fill="white"/>
</clipPath>
</defs>
</svg>
